# xmcd
#
# Track frame offsets:
#	150
#	13297
#	24720
#	38345
#	49905
#	64582
#	77132
#	92265
#	106837
#	120532
#	131335
#	144710
#	155350
#	169650
#	180200
#	191267
#	207142
#	222732
#
# Disc length: 3136 seconds
#
# Revision: 0
# Processed by: cddbd v1.5.2PL0 Copyright (c) Steve Scherf et al.
# Submitted via: EasyCDDAExtractor 16.0.6.1
#
DISCID=e70c3e12
DTITLE=Συλλογικός δίσκος - Τα μεγάλα τραγούδια-Άκης Πάνου 2
DYEAR=1993
DGENRE=Λαϊκή
TTITLE0=Καζαντζίδης Στέλιος - Η ζωή μου όλη [1974]
TTITLE1=Διονυσίου Στράτος - Χαρά σ' αυτόν, που σ' έχει [1970]
TTITLE2=Μητσιάς Μανώλης - Ο τρελλός [1977]
TTITLE3=Καζαντζίδης Στέλιος - Το θολωμένο μου μυαλό [1974]
TTITLE4=Μαράντη Μαίρη - Δως μου να πιω [1970]
TTITLE5=Μοσχολιού Βίκυ-Γκίκα Βούλα - Η πρώτη δύσκολη στιγμή [1970]
TTITLE6=Χατζηαντωνίου Γιώργος - Δεν θέλω τη συμπόνια κανενός [1967]
TTITLE7=Μητσιάς Μανώλης - Άμα περάσει τούτο 'δω [1977]
TTITLE8=Μπιθικώτσης Γρηγόρης - Όταν σημάνει η ώρα [1968]
TTITLE9=Διονυσίου Στράτος - Θα ρίξω ροδοζάχαρη [1968]
TTITLE10=Μενιδιάτης Μιχάλης-Γεωργούτη Βούλα - Είδα τα μάτια σου κλαμμένα [1968
TTITLE10=]
TTITLE11=Κόκοτας Σταμάτης - Θα κλάψω αύριο [1968]
TTITLE12=Βοσκόπουλος Τόλης - Χωρίς αυτήν ποτέ μου [1973]
TTITLE13=Διονυσίου Στράτος - Του κόσμου το περίγελο [1970]
TTITLE14=Λαμπράκη Χαρούλα - Καρδιά γεννήθηκες πουλάκι [1968]
TTITLE15=Καζαντζίδης Στέλιος - Μίσος [1974]
TTITLE16=Διονυσίου Στράτος-Γεωργούτη Βούλα - Μη κατέβεις στο λιμάνι [1967]
TTITLE17=Μητσιάς Μανώλης - Κοινωνία [1977]
EXTD=
EXTT0=
EXTT1=
EXTT2=
EXTT3=
EXTT4=
EXTT5=
EXTT6=
EXTT7=
EXTT8=
EXTT9=
EXTT10=
EXTT11=
EXTT12=
EXTT13=
EXTT14=
EXTT15=
EXTT16=
EXTT17=
PLAYORDER=
